<?xml version="1.0" encoding="iso-8859-1"?>
<!-- Uploaded to: SVG Repo, www.svgrepo.com, Generator: SVG Repo Mixer Tools -->
<svg fill="#000000" height="800px" width="800px" version="1.1" id="Layer_1" xmlns="http://www.w3.org/2000/svg" xmlns:xlink="http://www.w3.org/1999/xlink" 
	 viewBox="0 0 480 480" xml:space="preserve">
<g id="XMLID_1353_">
	<g>
		<g>
			<path d="M207.619,180.666c-14.387-3.684-29.222-2.303-41.774,3.885c-13.072,6.445-22.135,17.277-25.52,30.501
				c-1.37,5.35,1.857,10.798,7.208,12.167c0.832,0.213,1.666,0.315,2.487,0.315c4.458,0,8.524-3.005,9.68-7.523
				c1.914-7.477,7.238-13.7,14.99-17.522c8.272-4.078,18.206-4.948,27.971-2.449c5.349,1.37,10.798-1.857,12.167-7.208
				C216.198,187.482,212.971,182.035,207.619,180.666z"/>
			<path d="M479.685,382.659c-1.369-5.35-6.818-8.577-12.167-7.207l-3.097,0.792l-82.845-187.663
				c-3.508-7.946-8.3-15.296-14.192-21.838c19.041-7.221,32.614-25.652,32.615-47.194V50.451c0-27.818-22.633-50.45-50.451-50.45
				c-7.791,0-15.593,1.842-22.561,5.326l-50.274,25.136c-0.694-0.028-1.396-0.043-2.098-0.043c-12.955,0-25.357,5.092-34.615,13.809
				c-9.257-8.717-21.659-13.809-34.615-13.809c-0.702,0-1.403,0.015-2.098,0.043L153.014,5.327
				c-6.968-3.484-14.77-5.326-22.562-5.326c-27.818,0-50.45,22.632-50.45,50.45v69.098c0,21.532,13.561,39.958,32.59,47.185
				c-5.888,6.525-10.63,13.832-14.168,21.846L15.577,376.243l-3.095-0.792c-5.35-1.371-10.798,1.857-12.167,7.207
				c-1.37,5.35,1.857,10.798,7.207,12.167l11.139,2.851c0.117,0.032,0.234,0.063,0.352,0.09l69.24,17.723
				c-6.837,26.708,12.228,54.741,42.498,62.489c5.282,1.352,10.623,2.022,15.89,2.021c9.08,0,17.94-1.991,25.884-5.907
				c13.072-6.445,22.136-17.277,25.52-30.501l69.221,17.718c0.129,0.036,0.26,0.069,0.391,0.1l11.119,2.846
				c5.349,1.371,10.798-1.857,12.167-7.208c1.37-5.35-1.857-10.798-7.208-12.167l-3.096-0.792L298.145,239.7
				c2.471-28.855-13.413-60.1-39.942-81.242l21.135-17.612l47.65,23.825c3.995,1.998,8.264,3.456,12.648,4.335
				c10.633,7.126,18.796,16.665,23.644,27.649l81.5,184.614l-68.88,17.633c-0.146,0.034-0.294,0.072-0.44,0.113l-60.16,15.399
				c-5.351,1.369-8.578,6.817-7.208,12.167c1.369,5.35,6.818,8.58,12.167,7.208l52.114-13.339
				c4.102,16.025-8.496,33.142-28.082,38.155c-7.294,1.867-14.772,1.854-21.624-0.042c-5.325-1.475-10.832,1.648-12.305,6.971
				c-1.473,5.323,1.648,10.831,6.971,12.304c10.21,2.825,21.246,2.874,31.917,0.142c30.269-7.748,49.333-35.78,42.498-62.489
				l69.25-17.726c0.11-0.026,0.221-0.054,0.331-0.084l11.148-2.854C477.828,393.457,481.055,388.009,479.685,382.659z
				 M100.002,119.549V50.451c0-16.791,13.66-30.451,30.45-30.451c4.703,0,9.412,1.111,13.618,3.215l32.524,16.262
				c-13.045,9.115-21.593,24.241-21.593,41.327c0,13.976,6.158,27.123,16.894,36.07l11.998,9.998l-39.824,19.912
				c-4.206,2.103-8.914,3.214-13.618,3.214C113.662,149.999,100.002,136.339,100.002,119.549z M163.68,456.156
				c-8.273,4.078-18.207,4.946-27.97,2.449c-19.587-5.014-32.185-22.13-28.083-38.155l71.043,18.184
				C176.756,446.111,171.433,452.333,163.68,456.156z M278.216,237.995l-17.221,201.067l-68.892-17.634
				c-0.137-0.039-0.275-0.074-0.415-0.106l-87.151-22.307c-0.145-0.041-0.29-0.078-0.436-0.112L35.22,381.271l81.501-184.613
				c4.221-9.561,10.758-17.838,19.43-24.601c0.994-0.775,1.802-1.702,2.416-2.72c5.014-0.821,9.908-2.394,14.447-4.664l47.65-23.825
				l22.733,18.944c2.097,1.748,4.447,3.141,6.95,4.144c0.332,0.236,0.681,0.455,1.047,0.654
				C260.801,180.561,280.492,211.432,278.216,237.995z M243.798,144.429c-2.127,1.772-5.468,1.773-7.597-0.001l-51.502-42.918
				c-6.164-5.136-9.698-12.683-9.698-20.706c0-16.754,13.63-30.384,30.384-30.384c10.752,0,20.49,5.509,26.049,14.738
				c1.809,3.004,5.06,4.84,8.566,4.84s6.757-1.836,8.565-4.84c5.56-9.228,15.298-14.738,26.05-14.738
				c16.754,0,30.384,13.63,30.384,30.384c0,8.023-3.535,15.57-9.697,20.706L243.798,144.429z M349.548,149.999
				c-4.702,0-9.411-1.112-13.618-3.215l-39.823-19.911l11.999-9.999c10.736-8.947,16.893-22.094,16.893-36.07
				c0-17.086-8.549-32.212-21.593-41.327l32.523-16.262c4.207-2.103,8.916-3.215,13.619-3.215c16.79,0,30.45,13.66,30.45,30.451
				v69.098C379.998,136.339,366.338,149.999,349.548,149.999z"/>
		</g>
	</g>
</g>
</svg>