<?xml version="1.0" encoding="iso-8859-1"?>
<!-- Uploaded to: SVG Repo, www.svgrepo.com, Generator: SVG Repo Mixer Tools -->
<svg fill="#000000" height="800px" width="800px" version="1.1" id="Layer_1" xmlns="http://www.w3.org/2000/svg" xmlns:xlink="http://www.w3.org/1999/xlink" 
	 viewBox="0 0 480 480" xml:space="preserve">
<g id="XMLID_784_">
	<g>
		<g>
			<path d="M224.999,150c-24.813,0-45,20.187-45,45s20.187,45,45,45c24.814,0,45-20.187,45-45S249.813,150,224.999,150z
				 M224.999,220c-13.785,0-25-11.215-25-25c0-13.785,11.215-25,25-25c13.785,0,25,11.215,25,25
				C249.999,208.785,238.785,220,224.999,220z"/>
			<path d="M460.84,79.3c-0.944-0.68-3.634-2.508-4.024-2.763c-4.625-3.019-10.821-1.717-13.84,2.908s-1.717,10.821,2.908,13.84
				c0.307,0.2,2.498,1.69,3.274,2.249c1.768,1.271,3.809,1.884,5.832,1.884c3.108,0,6.172-1.445,8.126-4.16
				C466.342,88.775,465.323,82.526,460.84,79.3z"/>
			<path d="M425.003,0.734c-0.044,0-5.424,0.171-5.978,0.202c-5.515,0.307-9.736,5.025-9.429,10.54
				c0.296,5.325,4.707,9.444,9.976,9.445c0.188,0,4.364-0.172,5.556-0.188c5.522-0.07,9.942-4.605,9.871-10.127
				C434.929,5.128,430.466,0.734,425.003,0.734z"/>
			<path d="M393.931,146.785c0.703-3.822,1.07-7.762,1.07-11.784c0-21.548-10.537-40.679-26.731-52.512
				c3.428-1.07,6.928-1.942,10.485-2.611c12.437-2.34,24.941-2.117,37.167,0.659c5.384,1.22,10.743-2.152,11.966-7.538
				c1.223-5.386-2.152-10.743-7.538-11.966c-14.911-3.385-30.15-3.659-45.292-0.812c-10.659,2.005-20.911,5.516-30.472,10.435
				c-0.424,0.218-0.825,0.461-1.203,0.729c-3.545-0.744-7.2-1.2-10.929-1.339c3.11-4.483,6.549-8.756,10.295-12.787
				c10.76-11.581,23.49-20.64,37.841-26.925c5.058-2.216,7.363-8.113,5.147-13.173c-2.217-5.058-8.115-7.361-13.173-5.147
				c-16.872,7.391-31.833,18.033-44.467,31.632c-5.221,5.617-9.934,11.639-14.098,18C300.371,25.094,265.272,0,225,0
				c-43.736,0-81.368,29.593-92.026,71.318C128.759,70.452,124.416,70,120,70c-35.841,0-65,29.159-65,65
				c0,4.021,0.367,7.959,1.069,11.779C30.27,164.554,15,193.479,15,225c0,52.383,42.617,95,95,95c8.623,0,17.051-1.143,25.11-3.331
				c9.545,11.42,22.506,19.085,36.787,22.008l-4.668,88.695c-0.728,13.835,4.122,26.99,13.658,37.042
				C190.423,474.465,203.305,480,217.16,480h15.679c13.855,0,26.736-5.535,36.272-15.586c9.536-10.051,14.387-23.206,13.659-37.042
				l-4.668-88.695c14.28-2.923,27.241-10.589,36.787-22.008c8.059,2.188,16.487,3.331,25.11,3.331c52.383,0,95-42.617,95-95
				C434.999,193.738,419.436,164.421,393.931,146.785z M329.999,90c24.814,0,45,20.187,45,45s-20.187,45-45,45
				c-3.878,0-7.718-0.491-11.428-1.461c-3.885-22.161-15.475-41.696-31.9-55.744c0.007-0.024,0.014-0.049,0.021-0.073
				C292.141,103.456,309.95,90,329.999,90z M300,195c0,41.355-33.645,75-75,75c-41.355,0-75-33.645-75-75s33.645-75,75-75
				C266.355,120,300,153.645,300,195z M225,20c35.26,0,65.495,24.354,73.157,58.388c-12.792,7.215-23.057,18.668-28.619,32.714
				C256.246,104.017,241.085,100,225,100c-16.082,0-31.248,4.019-44.538,11.102c-5.562-14.047-15.828-25.499-28.62-32.714
				C159.505,44.353,189.74,20,225,20z M120,90c20.05,0,37.858,13.455,43.307,32.722c0.007,0.024,0.014,0.049,0.021,0.073
				c-16.424,14.048-28.015,33.584-31.901,55.744C127.718,179.509,123.878,180,120,180c-24.813,0-45-20.187-45-45S95.187,90,120,90z
				 M110,300c-41.355,0-75-33.645-75-75c0-23.075,10.369-44.391,28.121-58.562C74.218,186.437,95.554,200,120,200
				c3.391,0,6.765-0.262,10.092-0.781c1.302,29.65,16.26,55.813,38.722,72.342C154.645,289.507,133.213,300,110,300z
				 M254.603,450.648c-5.722,6.031-13.451,9.352-21.763,9.352h-15.679c-8.313,0-16.042-3.322-21.764-9.352
				c-5.638-5.942-8.546-13.693-8.212-21.861C193.066,429.593,199.042,430,205,430c19.996,0,39.479-4.534,57.185-13.222l0.612,11.645
				C263.234,436.725,260.324,444.618,254.603,450.648z M205,380c20.508,0,39.611-7.604,54.142-21.025l1.88,35.712
				C244.103,404.723,224.853,410,205,410c-5.616,0-11.246-0.426-16.762-1.267l1.588-30.172C194.806,379.518,199.885,380,205,380z
				 M190.892,358.334l0.984-18.704c12.054-1.298,23.571-5.979,33.124-13.424c7.67,5.978,16.605,10.173,26.069,12.267
				C239.754,352.094,223.105,360,205,360C200.219,360,195.487,359.44,190.892,358.334z M264.999,320
				c-12.502,0-24.125-5.02-32.726-14.136c-1.889-2.002-4.52-3.137-7.273-3.137s-5.383,1.135-7.273,3.137
				C209.125,314.98,197.503,320,185,320c-11.118,0-21.679-4.062-29.858-11.327c12.05-6.5,22.675-15.631,31.081-26.95
				C198.071,287.041,211.194,290,225,290c13.805,0,26.929-2.959,38.777-8.277c8.405,11.319,19.03,20.45,31.08,26.95
				C286.678,315.938,276.118,320,264.999,320z M339.999,300c-23.214,0-44.645-10.493-58.815-28.439
				c22.463-16.529,37.42-42.693,38.722-72.342c3.327,0.519,6.702,0.781,10.093,0.781c24.44,0,45.772-13.558,56.871-33.547
				c17.575,14.121,28.129,35.676,28.129,58.547C414.999,266.355,381.355,300,339.999,300z"/>
		</g>
	</g>
</g>
</svg>