<?xml version="1.0" encoding="UTF-8"?>
<svg id="Layer_2" data-name="Layer 2" xmlns="http://www.w3.org/2000/svg" viewBox="0 0 661.63 21.38">
  <defs>
    <style>
      .cls-1, .cls-2 {
        fill: none;
        stroke: #fff;
        stroke-linecap: round;
        stroke-linejoin: round;
      }

      .cls-3 {
        fill: #fff;
        stroke-width: 0px;
      }

      .cls-2 {
        stroke-width: .75px;
      }
    </style>
  </defs>
  <g id="Layer_1-2" data-name="Layer 1">
    <g>
      <g>
        <g>
          <line class="cls-2" x1="305.58" y1="10.69" x2="298.51" y2="10.69"/>
          <line class="cls-2" x1="26.85" y1="10.69" x2="4.59" y2="10.69"/>
          <line class="cls-2" x1="289.84" y1="10.69" x2="35.52" y2="10.69"/>
          <g>
            <path class="cls-2" d="m14.45,4c.01-.59.75-.98,1.31-.79.56.19.91.77,1.01,1.36.16.97-.38,2.08-1.32,2.37-.74.23-1.57-.07-2.11-.62-.9-.9-1.04-2.43-.39-3.52.66-1.09,2.02-1.68,3.28-1.48,1.26.2,2.35,1.13,2.81,2.32.46,1.19.31,2.57-.34,3.67-1.05,1.79-3.13,2.64-5.06,3.38"/>
            <path class="cls-2" d="m14.45,17.39c.01.59.75.98,1.31.79.56-.19.91-.77,1.01-1.36.16-.97-.38-2.08-1.32-2.37-.74-.23-1.57.07-2.11.62-.9.9-1.04,2.43-.39,3.52.66,1.09,2.02,1.68,3.28,1.48,1.26-.2,2.35-1.13,2.81-2.32s.31-2.57-.34-3.67c-1.05-1.79-3.13-2.64-5.06-3.38"/>
          </g>
        </g>
        <g>
          <path class="cls-2" d="m305.58,10.69c0-3.14,2.54-5.68,5.68-5.68s5.68,2.54,5.68,5.68-2.54,5.68-5.68,5.68-5.68-2.54-5.68-5.68Z"/>
          <path class="cls-2" d="m308.25,3.8c2.55-2.85,6.56-3.42,6.56-3.42,0,0-.12,4.05-2.67,6.9-2.55,2.85-6.56,3.42-6.56,3.42,0,0,.12-4.05,2.67-6.9Z"/>
          <path class="cls-2" d="m308.25,17.59c2.55,2.85,6.56,3.42,6.56,3.42,0,0-.12-4.05-2.67-6.9-2.55-2.85-6.56-3.42-6.56-3.42,0,0,.12,4.05,2.67,6.9Z"/>
        </g>
        <path class="cls-2" d="m322.1,10.69c0-1.56,1.26-2.82,2.82-2.82s2.82,1.26,2.82,2.82-1.26,2.82-2.82,2.82-2.82-1.26-2.82-2.82Z"/>
        <polygon class="cls-2" points="294.18 6.36 295.71 9.16 298.51 10.69 295.71 12.22 294.18 15.03 292.64 12.22 289.84 10.69 292.64 9.16 294.18 6.36"/>
        <polygon class="cls-2" points="31.18 6.36 32.72 9.16 35.52 10.69 32.72 12.22 31.18 15.03 29.65 12.22 26.85 10.69 29.65 9.16 31.18 6.36"/>
        <path class="cls-3" d="m6.65,5.88c.29,2.45,2.61,4.42,5.16,4.42.45,0,.5.68.06.75-3.17.6-6.52-1.49-7.51-4.63-.5-1.63,2.02-2.22,2.29-.53h0Z"/>
        <path class="cls-3" d="m4.38,14.93c1.01-3.13,4.34-5.18,7.49-4.59.2.04.34.23.31.44-.03.18-.19.31-.37.31-2.55,0-4.86,1.97-5.16,4.42-.28,1.72-2.84,1.07-2.27-.58h0Z"/>
        <path class="cls-1" d="m.5,10.5c0-1,.81-1.8,1.8-1.8s1.8.81,1.8,1.8-.81,1.8-1.8,1.8-1.8-.81-1.8-1.8Z"/>
      </g>
      <g>
        <g>
          <line class="cls-2" x1="363.12" y1="10.69" x2="356.05" y2="10.69"/>
          <line class="cls-2" x1="657.04" y1="10.69" x2="634.78" y2="10.69"/>
          <line class="cls-2" x1="626.11" y1="10.69" x2="371.79" y2="10.69"/>
          <g>
            <path class="cls-2" d="m647.18,4c-.01-.59-.75-.98-1.31-.79-.56.19-.91.77-1.01,1.36-.16.97.38,2.08,1.32,2.37.74.23,1.57-.07,2.11-.62.9-.9,1.04-2.43.39-3.52-.66-1.09-2.02-1.68-3.28-1.48s-2.35,1.13-2.81,2.32c-.46,1.19-.31,2.57.34,3.67,1.05,1.79,3.13,2.64,5.06,3.38"/>
            <path class="cls-2" d="m647.18,17.39c-.01.59-.75.98-1.31.79-.56-.19-.91-.77-1.01-1.36-.16-.97.38-2.08,1.32-2.37.74-.23,1.57.07,2.11.62.9.9,1.04,2.43.39,3.52-.66,1.09-2.02,1.68-3.28,1.48-1.26-.2-2.35-1.13-2.81-2.32-.46-1.18-.31-2.57.34-3.67,1.05-1.79,3.13-2.64,5.06-3.38"/>
          </g>
        </g>
        <g>
          <path class="cls-2" d="m356.05,10.69c0-3.14-2.54-5.68-5.68-5.68s-5.68,2.54-5.68,5.68,2.54,5.68,5.68,5.68,5.68-2.54,5.68-5.68Z"/>
          <path class="cls-2" d="m353.38,3.8c-2.55-2.85-6.56-3.42-6.56-3.42,0,0,.12,4.05,2.67,6.9,2.55,2.85,6.56,3.42,6.56,3.42,0,0-.12-4.05-2.67-6.9Z"/>
          <path class="cls-2" d="m353.38,17.59c-2.55,2.85-6.56,3.42-6.56,3.42,0,0,.12-4.05,2.67-6.9,2.55-2.85,6.56-3.42,6.56-3.42,0,0-.12,4.05-2.67,6.9Z"/>
        </g>
        <path class="cls-2" d="m339.53,10.69c0-1.56-1.26-2.82-2.82-2.82s-2.82,1.26-2.82,2.82,1.26,2.82,2.82,2.82,2.82-1.26,2.82-2.82Z"/>
        <polygon class="cls-2" points="367.46 6.36 365.92 9.16 363.12 10.69 365.92 12.22 367.46 15.03 368.99 12.22 371.79 10.69 368.99 9.16 367.46 6.36"/>
        <polygon class="cls-2" points="630.45 6.36 628.92 9.16 626.11 10.69 628.92 12.22 630.45 15.03 631.98 12.22 634.78 10.69 631.98 9.16 630.45 6.36"/>
        <path class="cls-3" d="m657.25,6.45c-1.01,3.13-4.34,5.18-7.49,4.59-.2-.04-.34-.23-.31-.44.03-.18.19-.31.37-.31,2.54,0,4.86-1.97,5.16-4.42.28-1.72,2.84-1.07,2.27.58h0Z"/>
        <path class="cls-3" d="m654.98,15.51c-.29-2.45-2.61-4.42-5.16-4.42-.45,0-.5-.68-.06-.75,3.17-.6,6.52,1.49,7.51,4.63.5,1.63-2.02,2.22-2.29.53h0Z"/>
        <path class="cls-1" d="m661.13,10.5c0-1-.81-1.8-1.8-1.8s-1.8.81-1.8,1.8.81,1.8,1.8,1.8,1.8-.81,1.8-1.8Z"/>
      </g>
    </g>
  </g>
</svg>