<?xml version="1.0" encoding="iso-8859-1"?>
<!-- Uploaded to: SVG Repo, www.svgrepo.com, Generator: SVG Repo Mixer Tools -->
<svg fill="#000000" height="800px" width="800px" version="1.1" id="Layer_1" xmlns="http://www.w3.org/2000/svg" xmlns:xlink="http://www.w3.org/1999/xlink" 
	 viewBox="0 0 480 480" xml:space="preserve">
<g id="XMLID_1739_">
	<g>
		<g>
			<path d="M320.812,191.396L145,132.792V100c0-44.112,35.888-80,80-80c30.068,0,56.314,16.672,69.979,41.26
				C291.789,60.438,288.443,60,285,60c-22.056,0-40,17.944-40,40c0,22.056,17.944,40,40,40c22.056,0,40-17.944,40-40
				C325,44.859,280.141,0,225,0c-55.14,0-100,44.859-100,100v330c0,27.57,22.43,50,50,50h130c27.57,0,50-22.43,50-50V238.83
				C355,217.274,341.261,198.212,320.812,191.396z M305,100c0,11.028-8.972,20-20,20s-20-8.972-20-20s8.972-20,20-20
				S305,88.972,305,100z M335,430c0,16.542-13.458,30-30,30H175c-16.542,0-30-13.458-30-30V153.874l169.487,56.496
				c12.27,4.089,20.513,15.526,20.513,28.46V430z"/>
			<path d="M260.77,295.385c-7.576,0-14.874,2.563-20.77,7.053c-5.896-4.49-13.193-7.053-20.769-7.053
				c-18.875,0-34.231,15.355-34.231,34.23c0,9.576,4.219,18.584,11.576,24.716l30.902,25.751c3.509,2.923,7.956,4.533,12.522,4.533
				c4.565,0,9.013-1.609,12.522-4.533l30.902-25.752c7.356-6.131,11.575-15.14,11.575-24.715
				C295,310.74,279.645,295.385,260.77,295.385z M270.621,338.966L240,364.483l-30.621-25.517c-2.783-2.32-4.38-5.729-4.38-9.352
				c0-7.847,6.384-14.23,14.231-14.23c5.036,0,9.598,2.582,12.203,6.907c1.81,3.004,5.06,4.84,8.566,4.84
				c3.506,0,6.756-1.837,8.566-4.841c2.604-4.324,7.167-6.906,12.203-6.906c7.847,0,14.23,6.384,14.23,14.23
				C275,333.238,273.403,336.646,270.621,338.966z"/>
		</g>
	</g>
</g>
</svg>