<?xml version="1.0" encoding="iso-8859-1"?>
<!-- Uploaded to: SVG Repo, www.svgrepo.com, Generator: SVG Repo Mixer Tools -->
<svg fill="#000000" height="800px" width="800px" version="1.1" id="Layer_1" xmlns="http://www.w3.org/2000/svg" xmlns:xlink="http://www.w3.org/1999/xlink" 
	 viewBox="0 0 480 480" xml:space="preserve">
<g id="XMLID_1323_">
	<g>
		<g>
			<path d="M298.734,109.316L179.381,97.977c-5.5-0.524-10.379,3.511-10.901,9.009c-0.523,5.498,3.511,10.379,9.009,10.901
				l119.353,11.339c0.322,0.03,0.641,0.045,0.958,0.045c5.096,0,9.451-3.879,9.943-9.055
				C308.265,114.718,304.231,109.838,298.734,109.316z"/>
			<path d="M201.157,79.957l79.568,7.559c0.322,0.03,0.641,0.045,0.958,0.045c5.096,0,9.451-3.879,9.943-9.055
				c0.523-5.498-3.511-10.379-9.009-10.901l-79.568-7.559c-5.498-0.526-10.379,3.511-10.901,9.009
				C191.625,74.553,195.659,79.433,201.157,79.957z"/>
			<path d="M367.85,22.814L129.144,0.137c-7.968-0.755-15.765,1.638-21.938,6.746c-6.171,5.105-9.986,12.31-10.743,20.286
				L85.135,146.631c-1.562,16.467,10.556,31.136,27.013,32.7l57.906,5.501v16.562c0,14.436,11.738,26.18,26.165,26.18
				c4.043,0,8.091-0.957,11.705-2.766l15.397-7.706c-15.879,39.375-47.184,67.392-93.339,83.453
				c-5.216,1.815-7.973,7.515-6.158,12.731c1.815,5.216,7.517,7.972,12.731,6.158c41.772-14.536,73.388-38.847,93.443-71.454V410
				h-44.926c-19.299,0-35,15.701-35,35s15.701,35,35,35h109.853c19.299,0,35-15.701,35-35s-15.701-35-35-35h-44.926V247.99
				c20.055,32.607,51.671,56.919,93.443,71.454c5.216,1.816,10.916-0.942,12.731-6.158s-0.942-10.916-6.158-12.731
				c-46.156-16.061-77.46-44.079-93.339-83.453l15.397,7.706c3.615,1.809,7.663,2.766,11.706,2.766
				c14.427,0,26.165-11.744,26.165-26.18v-3.272l40.911,3.887c7.972,0.759,15.765-1.638,21.938-6.746
				c6.171-5.105,9.986-12.31,10.743-20.286l11.328-119.463C396.425,39.047,384.307,24.378,367.85,22.814z M198.973,206.923
				c-0.85,0.425-1.802,0.65-2.753,0.65c-3.399,0-6.165-2.772-6.165-6.18v-25.556c0.001-0.076,0.001-0.152,0-0.227v-1.857
				c0-3.408,2.766-6.181,6.166-6.181c0.951,0,1.903,0.225,2.754,0.651l31.024,15.528v7.645L198.973,206.923z M294.925,430
				c8.271,0,15,6.729,15,15s-6.729,15-15,15H185.073c-8.271,0-15-6.729-15-15s6.729-15,15-15H294.925z M289.943,201.394
				c0,3.407-2.766,6.18-6.165,6.18c-0.951,0-1.903-0.225-2.754-0.651l-31.025-15.527v-7.645l31.026-15.527
				c0.851-0.426,1.803-0.651,2.753-0.651c3.4,0,6.166,2.772,6.166,6.181L289.943,201.394z M374.953,53.626l-11.328,119.463
				c-0.252,2.661-1.524,5.063-3.581,6.765c-2.054,1.7-4.649,2.494-7.298,2.245l-42.802-4.066v-4.277
				c0-14.436-11.738-26.181-26.166-26.181c-4.042,0-8.09,0.957-11.705,2.766l-32.074,16.05l-32.074-16.051
				c-3.615-1.81-7.663-2.766-11.706-2.766c-11.319,0-20.982,7.229-24.621,17.315l-57.559-5.468
				c-5.48-0.521-9.515-5.411-8.994-10.901l11.328-119.463c0.252-2.661,1.524-5.063,3.581-6.765c2.055-1.7,4.65-2.495,7.298-2.245
				l238.706,22.678C371.438,43.245,375.474,48.135,374.953,53.626z"/>
		</g>
	</g>
</g>
</svg>